<svg width="41" height="40" viewBox="0 0 41 40" fill="none" xmlns="http://www.w3.org/2000/svg">
<rect x="0.445312" width="40" height="40" rx="20" fill="#F9F9F9"/>
<g clip-path="url(#clip0_1_33)">
<path d="M20.4453 11C18.7853 11 17.4453 12.37 17.4453 14.07V19.93C17.4453 21.63 18.7853 23 20.4453 23C22.1053 23 23.4453 21.63 23.4453 19.93V14.07C23.4453 12.37 22.1053 11 20.4453 11ZM26.9453 20H25.9453C25.9453 23.03 23.4753 25.5 20.4453 25.5C17.4153 25.5 14.9453 23.03 14.9453 20H13.9453C13.9453 23.24 16.3353 25.93 19.4453 26.41V29H21.4453V26.41C24.5553 25.93 26.9453 23.24 26.9453 20Z" fill="#0F0F0F"/>
</g>
<defs>
<clipPath id="clip0_1_33">
<rect width="24" height="24" fill="white" transform="translate(8.44531 8)"/>
</clipPath>
</defs>
</svg>
