<svg width="37" height="37" viewBox="0 0 37 37" fill="none" xmlns="http://www.w3.org/2000/svg">
<rect x="0.109375" y="0.875" width="36" height="36" rx="18" fill="black" fill-opacity="0.05"/>
<g clip-path="url(#clip0_22_67)">
<path d="M13.6094 18.875C13.6094 19.705 12.9394 20.375 12.1094 20.375C11.2794 20.375 10.6094 19.705 10.6094 18.875C10.6094 18.045 11.2794 17.375 12.1094 17.375C12.9394 17.375 13.6094 18.045 13.6094 18.875ZM18.1094 17.375C17.2794 17.375 16.6094 18.045 16.6094 18.875C16.6094 19.705 17.2794 20.375 18.1094 20.375C18.9394 20.375 19.6094 19.705 19.6094 18.875C19.6094 18.045 18.9394 17.375 18.1094 17.375ZM24.1094 17.375C23.2794 17.375 22.6094 18.045 22.6094 18.875C22.6094 19.705 23.2794 20.375 24.1094 20.375C24.9394 20.375 25.6094 19.705 25.6094 18.875C25.6094 18.045 24.9394 17.375 24.1094 17.375Z" fill="#0F0F0F"/>
</g>
<defs>
<clipPath id="clip0_22_67">
<rect width="24" height="24" fill="white" transform="translate(6.10938 6.875)"/>
</clipPath>
</defs>
</svg>
