<svg width="25" height="24" viewBox="0 0 25 24" fill="none" xmlns="http://www.w3.org/2000/svg">
<path d="M21.3153 20.17L15.7253 14.58C16.7953 13.35 17.4453 11.75 17.4453 10C17.4453 6.13 14.3153 3 10.4453 3C6.57531 3 3.44531 6.13 3.44531 10C3.44531 13.87 6.57531 17 10.4453 17C12.1953 17 13.7953 16.35 15.0253 15.29L20.6153 20.88L21.3153 20.17ZM10.4453 16C7.13531 16 4.44531 13.31 4.44531 10C4.44531 6.69 7.13531 4 10.4453 4C13.7553 4 16.4453 6.69 16.4453 10C16.4453 13.31 13.7553 16 10.4453 16Z" fill="#0F0F0F"/>
</svg>
