<svg width="25" height="24" viewBox="0 0 25 24" fill="none" xmlns="http://www.w3.org/2000/svg">
<g clip-path="url(#clip0_1_50)">
<path d="M12.8906 2C7.37063 2 2.89062 6.48 2.89062 12C2.89062 17.52 7.37063 22 12.8906 22C18.4106 22 22.8906 17.52 22.8906 12C22.8906 6.48 18.4106 2 12.8906 2ZM12.8906 3C17.8506 3 21.8906 7.04 21.8906 12C21.8906 13.42 21.5506 14.76 20.9606 15.96C19.4306 14.24 16.9806 13.07 13.5806 12.93C15.4606 12.6 16.8906 10.97 16.8906 9C16.8906 6.79 15.1006 5 12.8906 5C10.6806 5 8.89062 6.79 8.89062 9C8.89062 10.97 10.3206 12.6 12.2006 12.93C8.80063 13.07 6.35063 14.24 4.82063 15.96C4.23063 14.76 3.89062 13.42 3.89062 12C3.89062 7.04 7.93062 3 12.8906 3ZM9.89062 9C9.89062 7.35 11.2406 6 12.8906 6C14.5406 6 15.8906 7.35 15.8906 9C15.8906 10.65 14.5406 12 12.8906 12C11.2406 12 9.89062 10.65 9.89062 9ZM12.8906 21C9.73062 21 6.95062 19.36 5.34062 16.88C6.90062 14.93 9.50062 13.9 12.8906 13.9C16.2806 13.9 18.8806 14.93 20.4406 16.88C18.8306 19.36 16.0506 21 12.8906 21Z" fill="#065FD4"/>
</g>
<defs>
<clipPath id="clip0_1_50">
<rect width="24" height="24" fill="white" transform="translate(0.890625)"/>
</clipPath>
</defs>
</svg>
