<svg width="24" height="24" viewBox="0 0 24 24" fill="none" xmlns="http://www.w3.org/2000/svg">
<g clip-path="url(#clip0_22_2823)">
<path d="M14.7201 17.84C14.4001 18.11 13.8901 18.37 13.4901 18.5C12.1501 18.83 11.0801 18.16 10.8701 18.04C10.6601 17.93 10.0901 17.66 10.0901 17.66C10.0901 17.66 10.4401 17.55 10.5001 17.53C11.8401 16.99 12.3901 16.29 12.5901 15.42C12.7901 14.58 12.4301 13.86 12.2801 13.03C12.1601 12.34 12.1701 11.75 12.4001 11.13C12.4201 11.08 12.5201 10.7 12.5201 10.7C12.5201 10.7 12.6301 11.05 12.6501 11.11C13.3601 12.62 15.3701 13.29 15.7201 14.95C15.7501 15.1 15.7701 15.25 15.7701 15.41C15.8001 16.3 15.4001 17.26 14.7201 17.84ZM12.4001 4.34C12.2801 4.42 12.1801 4.49 12.0901 4.56C9.10007 6.87 9.18007 10.49 9.78007 13.11L9.79007 13.14L9.80007 13.17C9.86007 13.52 9.75007 13.87 9.52007 14.13C9.28007 14.39 8.94007 14.54 8.57007 14.54C8.13007 14.54 7.72007 14.34 7.35007 13.94C6.68007 13.21 6.18007 12.37 5.85007 11.48C5.49007 12.25 5.10007 13.46 5.18007 14.67C5.22007 15.18 5.30007 15.67 5.43007 16.1C5.61007 16.7 5.86007 17.26 6.18007 17.75C7.23007 19.41 9.06007 20.57 10.9601 20.8C11.3801 20.85 11.8101 20.88 12.2201 20.88C13.5601 20.88 15.4701 20.61 16.9601 19.31C18.7301 17.75 19.3101 15.32 18.4001 13.25C18.3601 13.15 18.3401 13.11 18.3101 13.06L18.2701 12.98C18.0601 12.56 17.8001 12.17 17.5201 11.84C17.2801 11.54 17.0401 11.28 16.7301 11.01C16.4301 10.74 16.0901 10.5 15.7301 10.24C15.2701 9.91 14.8001 9.57 14.3501 9.15C12.9801 7.83 12.3001 6.11 12.4001 4.34ZM14.4101 2C14.4101 2 14.2101 2.2 13.8501 2.99C13.1901 4.91 13.7001 6.94 15.1901 8.38C15.9201 9.07 16.8001 9.55 17.5501 10.22C17.8701 10.51 18.1701 10.81 18.4401 11.15C18.8001 11.57 19.1001 12.04 19.3501 12.53C19.4001 12.63 19.4501 12.73 19.4901 12.83C20.6101 15.38 19.8501 18.3 17.7601 20.14C16.2301 21.47 14.2201 22 12.2201 22C11.7501 22 11.2701 21.97 10.8101 21.91C8.52007 21.63 6.39007 20.25 5.18007 18.34C4.79007 17.74 4.50007 17.08 4.30007 16.41C4.14007 15.87 4.05007 15.31 4.01007 14.74C3.89007 12.86 4.68007 11.11 5.09007 10.43C5.50007 9.74 6.64007 8.25 6.64007 8.25C6.64007 8.25 6.64007 8.28 6.63007 8.34C6.41007 10.11 7.00007 11.88 8.22007 13.22C8.37007 13.39 8.49007 13.44 8.56007 13.44C8.62007 13.44 8.65007 13.4 8.64007 13.35C7.79007 9.59 8.37007 6 11.3501 3.7C11.9401 3.24 12.8601 2.76 13.3301 2.52C13.8001 2.28 14.4101 2 14.4101 2Z" fill="#030303"/>
</g>
<defs>
<clipPath id="clip0_22_2823">
<rect width="24" height="24" fill="white"/>
</clipPath>
</defs>
</svg>
