<svg width="24" height="24" viewBox="0 0 24 24" fill="none" xmlns="http://www.w3.org/2000/svg">
<g clip-path="url(#clip0_22_2895)">
<path d="M6 12C6 8.69 8.69 6 12 6C15.31 6 18 8.69 18 12C18 13.66 17.33 15.16 16.23 16.25L15.52 15.54C16.44 14.63 17 13.38 17 12C17 9.24 14.76 7 12 7C9.24 7 7 9.24 7 12C7 13.38 7.56 14.63 8.47 15.54L7.76 16.25C6.67 15.16 6 13.66 6 12ZM14 12C14 10.9 13.1 10 12 10C10.9 10 10 10.9 10 12C10 12.74 10.4 13.38 11 13.72V22H13V13.72C13.6 13.38 14 12.74 14 12ZM4.94 19.08L5.65 18.37C4.01 16.74 3 14.49 3 12C3 7.04 7.04 3 12 3C16.96 3 21 7.04 21 12C21 14.49 19.99 16.74 18.35 18.37L19.06 19.08C20.88 17.27 22 14.77 22 12C22 6.48 17.52 2 12 2C6.48 2 2 6.48 2 12C2 14.77 3.12 17.27 4.94 19.08Z" fill="#030303"/>
</g>
<defs>
<clipPath id="clip0_22_2895">
<rect width="24" height="24" fill="white"/>
</clipPath>
</defs>
</svg>
