<svg width="25" height="25" viewBox="0 0 25 25" fill="none" xmlns="http://www.w3.org/2000/svg">
<g clip-path="url(#clip0_22_38)">
<path d="M19.0887 11.875H14.8587L16.3787 6.935C16.6987 5.905 15.8587 4.875 14.6987 4.875C14.1187 4.875 13.5587 5.115 13.1787 5.525L7.31873 11.875H3.31873V21.875H7.31873H8.31873H17.7487C18.8087 21.875 19.7287 21.205 19.9387 20.265L21.2787 14.265C21.5487 13.025 20.4987 11.875 19.0887 11.875ZM7.31873 20.875H4.31873V12.875H7.31873V20.875ZM20.2987 14.045L18.9587 20.045C18.8587 20.525 18.3487 20.875 17.7487 20.875H8.31873V12.265L13.9187 6.205C14.1087 5.995 14.3987 5.875 14.6987 5.875C14.9587 5.875 15.1987 5.985 15.3287 6.175C15.3987 6.275 15.4787 6.435 15.4187 6.645L13.8987 11.585L13.4987 12.875H14.8487H19.0787C19.4887 12.875 19.8787 13.045 20.1087 13.335C20.2387 13.485 20.3687 13.735 20.2987 14.045Z" fill="#0F0F0F"/>
</g>
<defs>
<clipPath id="clip0_22_38">
<rect width="24" height="24" fill="white" transform="translate(0.318726 0.875)"/>
</clipPath>
</defs>
</svg>
