<svg width="24" height="24" viewBox="0 0 24 24" fill="none" xmlns="http://www.w3.org/2000/svg">
<g clip-path="url(#clip0_1_441)">
<path d="M14.72 17.84C14.4 18.11 13.89 18.37 13.49 18.5C12.15 18.83 11.08 18.16 10.87 18.04C10.66 17.93 10.09 17.66 10.09 17.66C10.09 17.66 10.44 17.55 10.5 17.53C11.84 16.99 12.39 16.29 12.59 15.42C12.79 14.58 12.43 13.86 12.28 13.03C12.16 12.34 12.17 11.75 12.4 11.13C12.42 11.08 12.52 10.7 12.52 10.7C12.52 10.7 12.63 11.05 12.65 11.11C13.36 12.62 15.37 13.29 15.72 14.95C15.75 15.1 15.77 15.25 15.77 15.41C15.8 16.3 15.4 17.26 14.72 17.84ZM12.4 4.34C12.28 4.42 12.18 4.49 12.09 4.56C9.10001 6.87 9.18001 10.49 9.78001 13.11L9.79001 13.14L9.80001 13.17C9.86001 13.52 9.75001 13.87 9.52001 14.13C9.28001 14.39 8.94001 14.54 8.57001 14.54C8.13001 14.54 7.72001 14.34 7.35001 13.94C6.68001 13.21 6.18001 12.37 5.85001 11.48C5.49001 12.25 5.10001 13.46 5.18001 14.67C5.22001 15.18 5.30001 15.67 5.43001 16.1C5.61001 16.7 5.86001 17.26 6.18001 17.75C7.23001 19.41 9.06001 20.57 10.96 20.8C11.38 20.85 11.81 20.88 12.22 20.88C13.56 20.88 15.47 20.61 16.96 19.31C18.73 17.75 19.31 15.32 18.4 13.25C18.36 13.15 18.34 13.11 18.31 13.06L18.27 12.98C18.06 12.56 17.8 12.17 17.52 11.84C17.28 11.54 17.04 11.28 16.73 11.01C16.43 10.74 16.09 10.5 15.73 10.24C15.27 9.91 14.8 9.57 14.35 9.15C12.98 7.83 12.3 6.11 12.4 4.34ZM14.41 2C14.41 2 14.21 2.2 13.85 2.99C13.19 4.91 13.7 6.94 15.19 8.38C15.92 9.07 16.8 9.55 17.55 10.22C17.87 10.51 18.17 10.81 18.44 11.15C18.8 11.57 19.1 12.04 19.35 12.53C19.4 12.63 19.45 12.73 19.49 12.83C20.61 15.38 19.85 18.3 17.76 20.14C16.23 21.47 14.22 22 12.22 22C11.75 22 11.27 21.97 10.81 21.91C8.52001 21.63 6.39001 20.25 5.18001 18.34C4.79001 17.74 4.50001 17.08 4.30001 16.41C4.14001 15.87 4.05001 15.31 4.01001 14.74C3.89001 12.86 4.68001 11.11 5.09001 10.43C5.50001 9.74 6.64001 8.25 6.64001 8.25C6.64001 8.25 6.64001 8.28 6.63001 8.34C6.41001 10.11 7.00001 11.88 8.22001 13.22C8.37001 13.39 8.49001 13.44 8.56001 13.44C8.62001 13.44 8.65001 13.4 8.64001 13.35C7.79001 9.59 8.37001 6 11.35 3.7C11.94 3.24 12.86 2.76 13.33 2.52C13.8 2.28 14.41 2 14.41 2Z" fill="#030303"/>
</g>
<defs>
<clipPath id="clip0_1_441">
<rect width="24" height="24" fill="white"/>
</clipPath>
</defs>
</svg>
