<svg width="24" height="24" viewBox="0 0 24 24" fill="none" xmlns="http://www.w3.org/2000/svg">
<g clip-path="url(#clip0_1_505)">
<path d="M12.5 6.44V5.94C13.36 5.71 14 4.93 14 4C14 2.9 13.1 2 12 2C10.9 2 10 2.9 10 4H11C11 3.45 11.45 3 12 3C12.55 3 13 3.45 13 4C13 4.55 12.55 5 12 5H11.5V6.44L4 13H6V19H7V21H8V19H10V22H11V19H13V21H14V19H15V16H18V13H20L12.5 6.44ZM6.66 12L12 7.33L17.34 12H6.66ZM14 18H7V13H14V18ZM15 15V13H17V15H15Z" fill="#030303"/>
</g>
<defs>
<clipPath id="clip0_1_505">
<rect width="24" height="24" fill="white"/>
</clipPath>
</defs>
</svg>
