<svg width="24" height="24" viewBox="0 0 24 24" fill="none" xmlns="http://www.w3.org/2000/svg">
<g clip-path="url(#clip0_1_497)">
<path d="M16 21H13.72C13.37 21.6 12.74 22 12 22C11.26 22 10.62 21.6 10.28 21H8V20H16V21ZM20 10C20 12.96 18.39 15.54 16 16.92V19H8V16.92C5.61 15.54 4 12.96 4 10C4 5.58 7.58 2 12 2C16.42 2 20 5.58 20 10ZM15 18V16.34L15.5 16.05C17.66 14.8 19 12.48 19 10C19 6.14 15.86 3 12 3C8.14 3 5 6.14 5 10C5 12.48 6.34 14.8 8.5 16.06L9 16.34V18H15Z" fill="#030303"/>
</g>
<defs>
<clipPath id="clip0_1_497">
<rect width="24" height="24" fill="white"/>
</clipPath>
</defs>
</svg>
