<svg width="19" height="18" viewBox="0 0 19 18" fill="none" xmlns="http://www.w3.org/2000/svg">
<path d="M18.7606 17.17L13.1706 11.58C14.2406 10.35 14.8906 8.75 14.8906 7C14.8906 3.13 11.7606 0 7.89062 0C4.02063 0 0.890625 3.13 0.890625 7C0.890625 10.87 4.02063 14 7.89062 14C9.64062 14 11.2406 13.35 12.4706 12.29L18.0606 17.88L18.7606 17.17ZM7.89062 13C4.58063 13 1.89062 10.31 1.89062 7C1.89062 3.69 4.58063 1 7.89062 1C11.2006 1 13.8906 3.69 13.8906 7C13.8906 10.31 11.2006 13 7.89062 13Z" fill="#0F0F0F"/>
</svg>
