<svg width="129" height="56" viewBox="0 0 129 56" fill="none" xmlns="http://www.w3.org/2000/svg">
<g clip-path="url(#clip0_22_2917)">
<path d="M43.9727 21.1232C43.6435 19.8932 42.6768 18.9266 41.4468 18.5974C39.2197 18 30.285 18 30.285 18C30.285 18 21.3504 18 19.1232 18.5974C17.8932 18.9266 16.9266 19.8932 16.5974 21.1232C16 23.3504 16 28 16 28C16 28 16 32.6496 16.5974 34.8768C16.9266 36.1068 17.8932 37.0734 19.1232 37.4026C21.3504 38 30.285 38 30.285 38C30.285 38 39.2197 38 41.4468 37.4026C42.6768 37.0734 43.6435 36.1068 43.9727 34.8768C44.5701 32.6496 44.5701 28 44.5701 28C44.5701 28 44.5677 23.3504 43.9727 21.1232Z" fill="#FF0000"/>
<path d="M27.4253 32.2854L34.8477 28.0004L27.4253 23.7153V32.2854Z" fill="white"/>
<path d="M50.6024 31.0036L47.3945 19.4185H50.1932L51.3174 24.6701C51.6043 25.9636 51.8136 27.0666 51.95 27.9791H52.0323C52.1264 27.3253 52.3381 26.2294 52.665 24.6889L53.8291 19.4185H56.6278L53.3799 31.0036V36.561H50.6001V31.0036H50.6024Z" fill="#212121"/>
<path d="M57.4697 36.1937C56.9053 35.8127 56.5031 35.22 56.2632 34.4157C56.0257 33.6114 55.9058 32.5437 55.9058 31.2078V29.3898C55.9058 28.0422 56.0422 26.9581 56.315 26.142C56.5878 25.3259 57.0135 24.7285 57.592 24.3546C58.1706 23.9806 58.9302 23.7925 59.871 23.7925C60.7976 23.7925 61.5384 23.983 62.0981 24.364C62.6555 24.745 63.0647 25.3423 63.3234 26.1514C63.5821 26.9628 63.7115 28.0422 63.7115 29.3898V31.2078C63.7115 32.5437 63.5845 33.6161 63.3329 34.4251C63.0812 35.2365 62.672 35.8292 62.1075 36.2031C61.5431 36.5771 60.7764 36.7652 59.8098 36.7652C58.8126 36.7675 58.0342 36.5747 57.4697 36.1937ZM60.6353 34.2323C60.7905 33.8231 60.8705 33.1575 60.8705 32.2309V28.3292C60.8705 27.4308 60.7929 26.7723 60.6353 26.3583C60.4777 25.9421 60.2026 25.7351 59.8074 25.7351C59.4265 25.7351 59.156 25.9421 59.0008 26.3583C58.8432 26.7746 58.7656 27.4308 58.7656 28.3292V32.2309C58.7656 33.1575 58.8408 33.8254 58.9914 34.2323C59.1419 34.6415 59.4123 34.8461 59.8074 34.8461C60.2026 34.8461 60.4777 34.6415 60.6353 34.2323Z" fill="#212121"/>
<path d="M72.8154 36.5634H70.6094L70.3648 35.03H70.3037C69.7039 36.1871 68.8055 36.7656 67.6061 36.7656C66.7759 36.7656 66.1621 36.4928 65.767 35.9496C65.3719 35.4039 65.1743 34.5526 65.1743 33.3955V24.0375H67.9942V33.2308C67.9942 33.7906 68.0553 34.188 68.1776 34.4256C68.2999 34.6631 68.5045 34.783 68.7914 34.783C69.036 34.783 69.2712 34.7078 69.497 34.5573C69.7228 34.4067 69.8874 34.2162 69.9979 33.9858V24.0352H72.8154V36.5634Z" fill="#212121"/>
<path d="M80.4755 21.6876H77.6768V36.5629H74.9181V21.6876H72.1194V19.4204H80.4755V21.6876Z" fill="#212121"/>
<path d="M87.2768 36.5634H85.0708L84.8262 35.03H84.7651C84.1654 36.1871 83.267 36.7656 82.0675 36.7656C81.2373 36.7656 80.6235 36.4928 80.2284 35.9496C79.8333 35.4039 79.6357 34.5526 79.6357 33.3955V24.0375H82.4556V33.2308C82.4556 33.7906 82.5167 34.188 82.639 34.4256C82.7613 34.6631 82.9659 34.783 83.2529 34.783C83.4974 34.783 83.7326 34.7078 83.9584 34.5573C84.1842 34.4067 84.3488 34.2162 84.4593 33.9858V24.0352H87.2768V36.5634Z" fill="#212121"/>
<path d="M96.609 26.0387C96.4373 25.2485 96.1621 24.677 95.7812 24.3219C95.4002 23.9667 94.8757 23.7903 94.2078 23.7903C93.6904 23.7903 93.2059 23.9362 92.7567 24.2301C92.3075 24.5241 91.9594 24.9075 91.7148 25.3849H91.6937V18.7856H88.9773V36.5608H91.3056L91.5925 35.3755H91.6537C91.8724 35.7988 92.1993 36.1304 92.6344 36.3774C93.0695 36.622 93.554 36.7443 94.0855 36.7443C95.038 36.7443 95.7412 36.3045 96.1904 35.4272C96.6396 34.5476 96.8653 33.1765 96.8653 31.3092V29.3266C96.8653 27.9272 96.7783 26.8289 96.609 26.0387ZM94.0243 31.1492C94.0243 32.0617 93.9867 32.7767 93.9114 33.2941C93.8362 33.8115 93.7115 34.1808 93.5328 34.3971C93.3564 34.6158 93.1165 34.724 92.8178 34.724C92.585 34.724 92.371 34.6699 92.1734 34.5594C91.9759 34.4512 91.816 34.2866 91.6937 34.0702V26.9606C91.7877 26.6196 91.9524 26.3421 92.1852 26.1234C92.4157 25.9046 92.6697 25.7965 92.9401 25.7965C93.2271 25.7965 93.4481 25.9093 93.6034 26.1328C93.7609 26.3585 93.8691 26.7348 93.9303 27.2664C93.9914 27.7979 94.022 28.5528 94.022 29.5335V31.1492H94.0243Z" fill="#212121"/>
<path d="M100.866 31.8712C100.866 32.6755 100.889 33.2776 100.936 33.6798C100.983 34.0819 101.082 34.3736 101.233 34.5594C101.383 34.7428 101.614 34.8345 101.926 34.8345C102.347 34.8345 102.639 34.6699 102.794 34.343C102.952 34.0161 103.036 33.4705 103.051 32.7085L105.482 32.8519C105.496 32.9601 105.503 33.1106 105.503 33.3011C105.503 34.4582 105.186 35.3237 104.553 35.8952C103.921 36.4667 103.025 36.7536 101.868 36.7536C100.478 36.7536 99.504 36.3185 98.9466 35.446C98.3869 34.5735 98.1094 33.2259 98.1094 31.4008V29.2136C98.1094 27.3345 98.3987 25.9611 98.9772 25.0956C99.5558 24.2301 100.546 23.7974 101.95 23.7974C102.916 23.7974 103.66 23.9738 104.177 24.3289C104.694 24.684 105.059 25.2343 105.271 25.9846C105.482 26.7348 105.588 27.7696 105.588 29.0913V31.2362H100.866V31.8712ZM101.223 25.9681C101.08 26.1445 100.986 26.4338 100.936 26.8359C100.889 27.2381 100.866 27.8472 100.866 28.6657V29.5641H102.928V28.6657C102.928 27.8613 102.9 27.2522 102.846 26.8359C102.792 26.4197 102.693 26.128 102.55 25.9564C102.406 25.787 102.185 25.7 101.886 25.7C101.585 25.7024 101.364 25.7917 101.223 25.9681Z" fill="#212121"/>
</g>
<defs>
<clipPath id="clip0_22_2917">
<rect width="90" height="20" fill="white" transform="translate(16 18)"/>
</clipPath>
</defs>
</svg>
