<svg width="53" height="37" viewBox="0 0 53 37" fill="none" xmlns="http://www.w3.org/2000/svg">
<g clip-path="url(#clip0_22_45)">
<path d="M28.3187 10.875H27.3187H17.8887C16.8187 10.875 15.9087 11.545 15.6987 12.485L14.3587 18.485C14.0887 19.725 15.1387 20.875 16.5487 20.875H20.7787L19.2587 25.815C18.9387 26.845 19.7787 27.875 20.9387 27.875C21.5187 27.875 22.0787 27.635 22.4587 27.225L28.3187 20.875H32.3187V10.875H28.3187ZM21.7187 26.545C21.5287 26.755 21.2387 26.875 20.9387 26.875C20.6787 26.875 20.4387 26.765 20.3087 26.575C20.2387 26.475 20.1587 26.315 20.2187 26.105L21.7387 21.165L22.1387 19.875H20.7787H16.5487C16.1387 19.875 15.7487 19.705 15.5187 19.415C15.3987 19.265 15.2687 19.015 15.3387 18.695L16.6787 12.695C16.7787 12.225 17.2887 11.875 17.8887 11.875H27.3187V20.485L21.7187 26.545ZM31.3187 19.875H28.3187V11.875H31.3187V19.875Z" fill="#0F0F0F"/>
</g>
<defs>
<clipPath id="clip0_22_45">
<rect width="24" height="24" fill="white" transform="translate(11.3187 6.875)"/>
</clipPath>
</defs>
</svg>
