<svg width="41" height="40" viewBox="0 0 41 40" fill="none" xmlns="http://www.w3.org/2000/svg">
<g clip-path="url(#clip0_1_43)">
<path d="M20.8906 24.5C21.7206 24.5 22.3906 25.17 22.3906 26C22.3906 26.83 21.7206 27.5 20.8906 27.5C20.0606 27.5 19.3906 26.83 19.3906 26C19.3906 25.17 20.0606 24.5 20.8906 24.5ZM19.3906 20C19.3906 20.83 20.0606 21.5 20.8906 21.5C21.7206 21.5 22.3906 20.83 22.3906 20C22.3906 19.17 21.7206 18.5 20.8906 18.5C20.0606 18.5 19.3906 19.17 19.3906 20ZM19.3906 14C19.3906 14.83 20.0606 15.5 20.8906 15.5C21.7206 15.5 22.3906 14.83 22.3906 14C22.3906 13.17 21.7206 12.5 20.8906 12.5C20.0606 12.5 19.3906 13.17 19.3906 14Z" fill="#030303"/>
</g>
<defs>
<clipPath id="clip0_1_43">
<rect width="24" height="24" fill="white" transform="translate(8.89062 8)"/>
</clipPath>
</defs>
</svg>
