<svg width="40" height="40" viewBox="0 0 40 40" fill="none" xmlns="http://www.w3.org/2000/svg">
<g clip-path="url(#clip0_22_2750)">
<path d="M20 24.5C20.83 24.5 21.5 25.17 21.5 26C21.5 26.83 20.83 27.5 20 27.5C19.17 27.5 18.5 26.83 18.5 26C18.5 25.17 19.17 24.5 20 24.5ZM18.5 20C18.5 20.83 19.17 21.5 20 21.5C20.83 21.5 21.5 20.83 21.5 20C21.5 19.17 20.83 18.5 20 18.5C19.17 18.5 18.5 19.17 18.5 20ZM18.5 14C18.5 14.83 19.17 15.5 20 15.5C20.83 15.5 21.5 14.83 21.5 14C21.5 13.17 20.83 12.5 20 12.5C19.17 12.5 18.5 13.17 18.5 14Z" fill="#030303"/>
</g>
<defs>
<clipPath id="clip0_22_2750">
<rect width="24" height="24" fill="white" transform="translate(8 8)"/>
</clipPath>
</defs>
</svg>
